<svg width="173" height="30" viewBox="0 0 173 30" fill="none" xmlns="http://www.w3.org/2000/svg">
<path d="M15.9025 24.3003C15.449 24.0308 14.8832 24.0357 14.4344 24.313L7.55079 28.5665C6.48386 29.2258 5.14971 28.2754 5.42421 27.0516L7.19116 19.1741C7.30595 18.6623 7.12855 18.129 6.73009 17.788L0.593697 12.5361C-0.356823 11.7226 0.137033 10.1664 1.3827 10.0498L9.40365 9.29922C9.92597 9.25035 10.3785 8.91678 10.5797 8.43231L13.6662 1.00154C14.1453 -0.151753 15.774 -0.165746 16.2728 0.979149L19.4865 8.35579C19.696 8.83672 20.1542 9.16246 20.6773 9.20236L28.71 9.81502C29.9574 9.91017 30.478 11.4577 29.5416 12.2874L23.4963 17.6439C23.1038 17.9918 22.9356 18.528 23.0591 19.0377L24.9613 26.8843C25.2568 28.1031 23.9393 29.0763 22.8612 28.4356L15.9025 24.3003Z" fill="#FFC500"/>
<g clip-path="url(#clip0_382_8465)">
<path d="M50.7087 24.6318C50.2333 24.3467 49.6371 24.3467 49.1617 24.6319L41.8698 29.0051C40.7396 29.683 39.3424 28.6801 39.6427 27.4065L41.5759 19.2088C41.7015 18.6762 41.5194 18.1186 41.1026 17.7595L34.6841 12.2286C33.6899 11.3719 34.2244 9.75367 35.538 9.64329L43.9966 8.93253C44.5474 8.88625 45.0273 8.5425 45.2437 8.03917L48.5633 0.319062C49.0785 -0.879142 50.7948 -0.87914 51.3101 0.319064L54.6296 8.03918C54.8461 8.54251 55.3259 8.88625 55.8767 8.93253L64.3353 9.64329C65.649 9.75367 66.1835 11.3719 65.1892 12.2286L58.7708 17.7595C58.354 18.1186 58.1719 18.6762 58.2975 19.2088L60.2308 27.4071C60.5311 28.6806 59.1341 29.6835 58.0038 29.0058L50.7087 24.6318Z" fill="#E0E8F1"/>
</g>
<g clip-path="url(#clip1_382_8465)">
<path d="M86.2427 24.6318C85.7672 24.3467 85.171 24.3467 84.6956 24.6319L77.4037 29.0051C76.2735 29.683 74.8763 28.6801 75.1766 27.4065L77.1098 19.2088C77.2354 18.6762 77.0533 18.1186 76.6365 17.7595L70.218 12.2286C69.2238 11.3719 69.7583 9.75367 71.0719 9.64329L79.5305 8.93253C80.0814 8.88625 80.5612 8.5425 80.7776 8.03917L84.0972 0.319062C84.6124 -0.879142 86.3288 -0.87914 86.844 0.319064L90.1636 8.03918C90.38 8.54251 90.8598 8.88625 91.4107 8.93253L99.8693 9.64329C101.183 9.75367 101.717 11.3719 100.723 12.2286L94.3047 17.7595C93.8879 18.1186 93.7058 18.6762 93.8314 19.2088L95.7647 27.4071C96.065 28.6806 94.668 29.6835 93.5378 29.0058L86.2427 24.6318Z" fill="#E0E8F1"/>
</g>
<g clip-path="url(#clip2_382_8465)">
<path d="M121.777 24.6318C121.301 24.3467 120.705 24.3467 120.23 24.6319L112.938 29.0051C111.807 29.683 110.41 28.6801 110.711 27.4065L112.644 19.2088C112.769 18.6762 112.587 18.1186 112.17 17.7595L105.752 12.2286C104.758 11.3719 105.292 9.75367 106.606 9.64329L115.064 8.93253C115.615 8.88625 116.095 8.5425 116.312 8.03917L119.631 0.319062C120.146 -0.879142 121.863 -0.87914 122.378 0.319064L125.698 8.03918C125.914 8.54251 126.394 8.88625 126.945 8.93253L135.403 9.64329C136.717 9.75367 137.251 11.3719 136.257 12.2286L129.839 17.7595C129.422 18.1186 129.24 18.6762 129.365 19.2088L131.299 27.4071C131.599 28.6806 130.202 29.6835 129.072 29.0058L121.777 24.6318Z" fill="#E0E8F1"/>
</g>
<g clip-path="url(#clip3_382_8465)">
<path d="M157.311 24.6318C156.835 24.3467 156.239 24.3467 155.763 24.6319L148.472 29.0051C147.341 29.683 145.944 28.6801 146.244 27.4065L148.178 19.2088C148.303 18.6762 148.121 18.1186 147.704 17.7595L141.286 12.2286C140.292 11.3719 140.826 9.75367 142.14 9.64329L150.598 8.93253C151.149 8.88625 151.629 8.5425 151.846 8.03917L155.165 0.319062C155.68 -0.879142 157.397 -0.87914 157.912 0.319064L161.231 8.03918C161.448 8.54251 161.928 8.88625 162.479 8.93253L170.937 9.64329C172.251 9.75367 172.785 11.3719 171.791 12.2286L165.373 17.7595C164.956 18.1186 164.774 18.6762 164.899 19.2088L166.833 27.4071C167.133 28.6806 165.736 29.6835 164.606 29.0058L157.311 24.6318Z" fill="#E0E8F1"/>
</g>
<defs>
<clipPath id="clip0_382_8465">
<rect width="31.534" height="29.9029" fill="white" transform="translate(34.1697)"/>
</clipPath>
<clipPath id="clip1_382_8465">
<rect width="31.534" height="29.9029" fill="white" transform="translate(69.7036)"/>
</clipPath>
<clipPath id="clip2_382_8465">
<rect width="31.534" height="29.9029" fill="white" transform="translate(105.238)"/>
</clipPath>
<clipPath id="clip3_382_8465">
<rect width="31.534" height="29.9029" fill="white" transform="translate(140.771)"/>
</clipPath>
</defs>
</svg>
