<svg width="173" height="30" viewBox="0 0 173 30" fill="none" xmlns="http://www.w3.org/2000/svg">
<path d="M15.9025 25.3003C15.449 25.0308 14.8832 25.0357 14.4344 25.313L7.55079 29.5665C6.48386 30.2258 5.14971 29.2754 5.42421 28.0516L7.19116 20.1741C7.30595 19.6623 7.12855 19.129 6.73009 18.788L0.593697 13.5361C-0.356823 12.7226 0.137033 11.1664 1.3827 11.0498L9.40365 10.2992C9.92597 10.2503 10.3785 9.91678 10.5797 9.43231L13.6662 2.00154C14.1453 0.848247 15.774 0.834254 16.2728 1.97915L19.4865 9.35579C19.696 9.83672 20.1542 10.1625 20.6773 10.2024L28.71 10.815C29.9574 10.9102 30.478 12.4577 29.5416 13.2874L23.4963 18.6439C23.1038 18.9918 22.9356 19.528 23.0591 20.0377L24.9613 27.8843C25.2568 29.1031 23.9393 30.0763 22.8612 29.4356L15.9025 25.3003Z" fill="#FFC500"/>
<path d="M50.9025 25.3003C50.449 25.0308 49.8832 25.0357 49.4344 25.313L42.5508 29.5665C41.4839 30.2258 40.1497 29.2754 40.4242 28.0516L42.1912 20.1741C42.306 19.6623 42.1286 19.129 41.7301 18.788L35.5937 13.5361C34.6432 12.7226 35.137 11.1664 36.3827 11.0498L44.4037 10.2992C44.926 10.2503 45.3785 9.91678 45.5797 9.43231L48.6662 2.00154C49.1453 0.848247 50.774 0.834254 51.2728 1.97915L54.4865 9.35579C54.696 9.83672 55.1542 10.1625 55.6773 10.2024L63.71 10.815C64.9574 10.9102 65.478 12.4577 64.5416 13.2874L58.4963 18.6439C58.1038 18.9918 57.9356 19.528 58.0591 20.0377L59.9613 27.8843C60.2568 29.1031 58.9393 30.0763 57.8612 29.4356L50.9025 25.3003Z" fill="#FFC500"/>
<g clip-path="url(#clip0_382_8464)">
<path d="M86.5391 24.6318C86.0636 24.3467 85.4674 24.3467 84.992 24.6319L77.7001 29.0051C76.5699 29.683 75.1727 28.6801 75.473 27.4065L77.4062 19.2088C77.5318 18.6762 77.3497 18.1186 76.9329 17.7595L70.5144 12.2286C69.5202 11.3719 70.0547 9.75367 71.3683 9.64329L79.8269 8.93253C80.3778 8.88625 80.8576 8.5425 81.074 8.03917L84.3936 0.319062C84.9088 -0.879142 86.6252 -0.87914 87.1404 0.319064L90.46 8.03918C90.6764 8.54251 91.1562 8.88625 91.707 8.93253L100.166 9.64329C101.479 9.75367 102.014 11.3719 101.02 12.2286L94.6011 17.7595C94.1843 18.1186 94.0022 18.6762 94.1278 19.2088L96.0611 27.4071C96.3614 28.6806 94.9644 29.6835 93.8342 29.0058L86.5391 24.6318Z" fill="#E0E8F1"/>
</g>
<g clip-path="url(#clip1_382_8464)">
<path d="M121.539 24.6318C121.064 24.3467 120.467 24.3467 119.992 24.6319L112.7 29.0051C111.57 29.683 110.173 28.6801 110.473 27.4065L112.406 19.2088C112.532 18.6762 112.35 18.1186 111.933 17.7595L105.514 12.2286C104.52 11.3719 105.055 9.75367 106.368 9.64329L114.827 8.93253C115.378 8.88625 115.858 8.5425 116.074 8.03917L119.394 0.319062C119.909 -0.879142 121.625 -0.87914 122.14 0.319064L125.46 8.03918C125.676 8.54251 126.156 8.88625 126.707 8.93253L135.166 9.64329C136.479 9.75367 137.014 11.3719 136.02 12.2286L129.601 17.7595C129.184 18.1186 129.002 18.6762 129.128 19.2088L131.061 27.4071C131.361 28.6806 129.964 29.6835 128.834 29.0058L121.539 24.6318Z" fill="#E0E8F1"/>
</g>
<g clip-path="url(#clip2_382_8464)">
<path d="M157.539 24.6318C157.064 24.3467 156.467 24.3467 155.992 24.6319L148.7 29.0051C147.57 29.683 146.173 28.6801 146.473 27.4065L148.406 19.2088C148.532 18.6762 148.35 18.1186 147.933 17.7595L141.514 12.2286C140.52 11.3719 141.055 9.75367 142.368 9.64329L150.827 8.93253C151.378 8.88625 151.858 8.5425 152.074 8.03917L155.394 0.319062C155.909 -0.879142 157.625 -0.87914 158.14 0.319064L161.46 8.03918C161.676 8.54251 162.156 8.88625 162.707 8.93253L171.166 9.64329C172.479 9.75367 173.014 11.3719 172.02 12.2286L165.601 17.7595C165.184 18.1186 165.002 18.6762 165.128 19.2088L167.061 27.4071C167.361 28.6806 165.964 29.6835 164.834 29.0058L157.539 24.6318Z" fill="#E0E8F1"/>
</g>
<defs>
<clipPath id="clip0_382_8464">
<rect width="31.534" height="29.9029" fill="white" transform="translate(70)"/>
</clipPath>
<clipPath id="clip1_382_8464">
<rect width="31.534" height="29.9029" fill="white" transform="translate(105)"/>
</clipPath>
<clipPath id="clip2_382_8464">
<rect width="31.534" height="29.9029" fill="white" transform="translate(141)"/>
</clipPath>
</defs>
</svg>
