<svg width="160" height="29" viewBox="0 0 160 29" fill="none" xmlns="http://www.w3.org/2000/svg">
<path d="M15.2206 23.2584C14.7865 23.0005 14.245 23.0051 13.8155 23.2706L7.22703 27.3417C6.20584 27.9727 4.9289 27.063 5.19163 25.8917L6.88282 18.352C6.99269 17.8622 6.8229 17.3517 6.44152 17.0253L0.568241 11.9987C-0.341523 11.22 0.131157 9.73051 1.32341 9.61894L9.00045 8.90053C9.50037 8.85375 9.93349 8.53449 10.1261 8.07079L13.0802 0.958636C13.5388 -0.14521 15.0976 -0.158602 15.575 0.937202L18.651 7.99755C18.8515 8.45786 19.29 8.76964 19.7907 8.80782L27.4789 9.39421C28.6729 9.48528 29.1711 10.9664 28.2749 11.7606L22.4889 16.8874C22.1131 17.2203 21.9521 17.7336 22.0704 18.2215L23.891 25.7316C24.1738 26.8981 22.9129 27.8296 21.881 27.2164L15.2206 23.2584Z" fill="#FFC500"/>
<path d="M48.0016 23.2584C47.5675 23.0005 47.026 23.0051 46.5965 23.2706L40.008 27.3417C38.9869 27.9727 37.7099 27.063 37.9726 25.8917L39.6638 18.352C39.7737 17.8622 39.6039 17.3517 39.2225 17.0253L33.3492 11.9987C32.4395 11.22 32.9122 9.73051 34.1044 9.61894L41.7815 8.90053C42.2814 8.85375 42.7145 8.53449 42.9071 8.07079L45.8613 0.958636C46.3198 -0.14521 47.8786 -0.158602 48.356 0.937202L51.432 7.99755C51.6325 8.45786 52.0711 8.76964 52.5717 8.80782L60.2599 9.39421C61.4539 9.48528 61.9522 10.9664 61.0559 11.7606L55.2699 16.8874C54.8941 17.2203 54.7332 17.7336 54.8514 18.2215L56.672 25.7316C56.9548 26.8981 55.6939 27.8296 54.662 27.2164L48.0016 23.2584Z" fill="#FFC500"/>
<path d="M80.7825 23.2584C80.3484 23.0005 79.8069 23.0051 79.3774 23.2706L72.7889 27.3417C71.7677 27.9727 70.4908 27.063 70.7535 25.8917L72.4447 18.352C72.5546 17.8622 72.3848 17.3517 72.0034 17.0253L66.1301 11.9987C65.2204 11.22 65.693 9.73051 66.8853 9.61894L74.5623 8.90053C75.0623 8.85375 75.4954 8.53449 75.688 8.07079L78.6421 0.958636C79.1006 -0.14521 80.6595 -0.158602 81.1369 0.937202L84.2129 7.99755C84.4134 8.45786 84.8519 8.76964 85.3526 8.80782L93.0408 9.39421C94.2348 9.48528 94.733 10.9664 93.8368 11.7606L88.0507 16.8874C87.675 17.2203 87.514 17.7336 87.6323 18.2215L89.4529 25.7316C89.7357 26.8981 88.4748 27.8296 87.4429 27.2164L80.7825 23.2584Z" fill="#FFC500"/>
<path d="M113.564 23.2584C113.129 23.0005 112.588 23.0051 112.158 23.2706L105.57 27.3417C104.549 27.9727 103.272 27.063 103.535 25.8917L105.226 18.352C105.336 17.8622 105.166 17.3517 104.784 17.0253L98.9111 11.9987C98.0014 11.22 98.4741 9.73051 99.6663 9.61894L107.343 8.90053C107.843 8.85375 108.276 8.53449 108.469 8.07079L111.423 0.958636C111.882 -0.14521 113.441 -0.158602 113.918 0.937202L116.994 7.99755C117.194 8.45786 117.633 8.76964 118.134 8.80782L125.822 9.39421C127.016 9.48528 127.514 10.9664 126.618 11.7606L120.832 16.8874C120.456 17.2203 120.295 17.7336 120.413 18.2215L122.234 25.7316C122.517 26.8981 121.256 27.8296 120.224 27.2164L113.564 23.2584Z" fill="#FFC500"/>
<path d="M146.344 23.7707C145.91 23.5128 145.369 23.5175 144.939 23.7829L138.351 27.854C137.33 28.485 136.053 27.5754 136.315 26.404L138.007 18.8643C138.116 18.3745 137.947 17.8641 137.565 17.5376L131.692 12.511C130.782 11.7324 131.255 10.2428 132.447 10.1313L140.124 9.41286C140.624 9.36608 141.057 9.04682 141.25 8.58312L144.204 1.47097C144.663 0.367119 146.221 0.353727 146.699 1.44953L149.775 8.50988C149.975 8.97019 150.414 9.28197 150.914 9.32015L158.603 9.90654C159.797 9.99761 160.295 11.4788 159.399 12.2729L153.613 17.3998C153.237 17.7327 153.076 18.2459 153.194 18.7338L155.015 26.2439C155.298 27.4105 154.037 28.3419 153.005 27.7287L146.344 23.7707Z" fill="#FFC500"/>
</svg>
