<svg width="74" height="25" viewBox="0 0 74 25" fill="none" xmlns="http://www.w3.org/2000/svg">
<path d="M9.624 24.6574C7.78933 24.6574 6.136 24.284 4.664 23.5374C3.21333 22.7694 2.072 21.7134 1.24 20.3694C0.429333 19.0254 0.024 17.5 0.024 15.7934C0.024 14.0867 0.429333 12.5614 1.24 11.2174C2.072 9.87337 3.21333 8.82803 4.664 8.08137C6.136 7.31337 7.78933 6.92937 9.624 6.92937C11.4373 6.92937 13.016 7.31337 14.36 8.08137C15.7253 8.82803 16.7173 9.90537 17.336 11.3134L13.464 13.3934C12.568 11.8147 11.2773 11.0254 9.592 11.0254C8.29067 11.0254 7.21333 11.452 6.36 12.3054C5.50667 13.1587 5.08 14.3214 5.08 15.7934C5.08 17.2654 5.50667 18.428 6.36 19.2814C7.21333 20.1347 8.29067 20.5614 9.592 20.5614C11.2987 20.5614 12.5893 19.772 13.464 18.1934L17.336 20.3054C16.7173 21.6707 15.7253 22.7374 14.36 23.5054C13.016 24.2734 11.4373 24.6574 9.624 24.6574ZM30.5493 6.92937C32.6826 6.92937 34.3999 7.56937 35.7013 8.84937C37.0239 10.1294 37.6853 12.028 37.6853 14.5454V24.4014H32.6933V15.3134C32.6933 13.948 32.3946 12.9347 31.7973 12.2734C31.1999 11.5907 30.3359 11.2494 29.2053 11.2494C27.9466 11.2494 26.9439 11.644 26.1973 12.4334C25.4506 13.2014 25.0773 14.3534 25.0773 15.8894V24.4014H20.0853V0.657366H25.0773V8.97737C25.7386 8.31603 26.5386 7.8147 27.4773 7.47337C28.4159 7.1107 29.4399 6.92937 30.5493 6.92937ZM51.0698 20.6574C51.9658 20.6574 52.7551 20.5294 53.4378 20.2734C54.1418 19.996 54.7924 19.5694 55.3898 18.9934L58.0458 21.8734C56.4244 23.7294 54.0564 24.6574 50.9418 24.6574C49.0004 24.6574 47.2831 24.284 45.7898 23.5374C44.2964 22.7694 43.1444 21.7134 42.3338 20.3694C41.5231 19.0254 41.1178 17.5 41.1178 15.7934C41.1178 14.108 41.5124 12.5934 42.3018 11.2494C43.1124 9.88403 44.2111 8.82803 45.5978 8.08137C47.0058 7.31337 48.5844 6.92937 50.3338 6.92937C51.9764 6.92937 53.4698 7.28137 54.8138 7.98537C56.1578 8.66803 57.2244 9.6707 58.0138 10.9934C58.8244 12.2947 59.2298 13.8414 59.2298 15.6334L46.4938 18.0974C46.8564 18.9507 47.4218 19.5907 48.1898 20.0174C48.9791 20.444 49.9391 20.6574 51.0698 20.6574ZM50.3338 10.7054C49.0751 10.7054 48.0511 11.1107 47.2618 11.9214C46.4724 12.732 46.0564 13.852 46.0138 15.2814L54.3978 13.6494C54.1631 12.7534 53.6831 12.0387 52.9578 11.5054C52.2324 10.972 51.3578 10.7054 50.3338 10.7054ZM67.4493 7.56937H71.8653V11.4094H67.5773V24.4014H62.5853V6.80137C62.5853 4.8387 63.1613 3.28137 64.3133 2.12937C65.4866 0.977365 67.1293 0.401365 69.2413 0.401365C69.9879 0.401365 70.6919 0.486699 71.3533 0.657366C72.0359 0.8067 72.6013 1.0307 73.0493 1.32937L71.7373 4.94537C71.1613 4.54003 70.4893 4.33737 69.7213 4.33737C68.2066 4.33737 67.4493 5.16937 67.4493 6.83337V7.56937Z" fill="white"/>
</svg>
